<svg xmlns="http://www.w3.org/2000/svg" viewBox="0 0 500 500"><defs><style>.cls-1{fill:#e3dedb;}.cls-2{fill:#663a37;}.cls-3{fill:#2ca05a;}.cls-4{font-size:37px;font-family:MarkerFelt, Marker Felt;}</style></defs><title>TBC_Logo</title><g id="Layer_2" data-name="Layer 2"><g id="Layer_1-2" data-name="Layer 1"><rect class="cls-1" width="500" height="500"/><path class="cls-2" d="M28.5,248.88V0H0V500l28.5-12.65,40.66-18,189.34-84v-34Zm0,205.69V281.22L223,368Z"/><polygon class="cls-3" points="500 0 500 500 0 500 28.5 487.35 69.16 469.3 470 469.3 470 29 28.5 29 28.5 0 500 0"/><polygon class="cls-3" points="378.25 149.5 155.25 248.75 378.25 348.25 378.25 380.55 119.75 265.5 119.75 231.5 378.25 116.75 378.25 149.5"/><text class="cls-4" transform="translate(233.67 455.14)">the <tspan class="cls-2" x="53.87" y="0">brown</tspan><tspan x="143.85" y="0"> </tspan><tspan class="cls-3" x="153.1" y="0">coder</tspan></text></g></g></svg>